<?xml version="1.0" encoding="UTF-8" standalone="no"?>
<!DOCTYPE svg PUBLIC "-//W3C//DTD SVG 1.1//EN" "http://www.w3.org/Graphics/SVG/1.1/DTD/svg11.dtd">
<svg xmlns="http://www.w3.org/2000/svg" xmlns:xl="http://www.w3.org/1999/xlink" version="1.1" viewBox="0 0 288 117" width="24pc" height="117pt" xmlns:dc="http://purl.org/dc/elements/1.1/"><metadata> Produced by OmniGraffle 6.6.2 <dc:date>2017-04-21 03:11:38 +0000</dc:date></metadata><defs/><g stroke="none" stroke-opacity="1" stroke-dasharray="none" fill="none" fill-opacity="1"><title>Canvas 1</title><g><title>Layer 1</title><circle cx="272.25" cy="17.5" r="9.0000144" fill="white"/><circle cx="272.25" cy="17.5" r="9.0000144" stroke="black" stroke-linecap="round" stroke-linejoin="round" stroke-width="3"/><circle cx="236.25" cy="53.5" r="9.0000144" fill="white"/><circle cx="236.25" cy="53.5" r="9.0000144" stroke="black" stroke-linecap="round" stroke-linejoin="round" stroke-width="3"/><circle cx="276.75" cy="80.5" r="9.0000144" fill="white"/><circle cx="276.75" cy="80.5" r="9.0000144" stroke="black" stroke-linecap="round" stroke-linejoin="round" stroke-width="3"/><circle cx="182.25" cy="35.5" r="9.0000144" fill="white"/><circle cx="182.25" cy="35.5" r="9.0000144" stroke="black" stroke-linecap="round" stroke-linejoin="round" stroke-width="3"/><circle cx="209.25" cy="98.5" r="9.0000144" fill="white"/><circle cx="209.25" cy="98.5" r="9.0000144" stroke="black" stroke-linecap="round" stroke-linejoin="round" stroke-width="3"/><line x1="192.21336" y1="38.821119" x2="226.28664" y2="50.17888" stroke="black" stroke-linecap="butt" stroke-linejoin="round" stroke-width="2"/><line x1="243.67461" y1="46.075386" x2="264.82539" y2="24.924614" stroke="black" stroke-linecap="butt" stroke-linejoin="round" stroke-width="6"/><line x1="272.9981" y1="27.973485" x2="276.0019" y2="70.026516" stroke="black" stroke-linecap="butt" stroke-linejoin="round" stroke-width="2"/><line x1="230.84652" y1="62.5058" x2="214.65348" y2="89.4942" stroke="black" stroke-linecap="butt" stroke-linejoin="round" stroke-width="5"/><line x1="205.11275" y1="88.84641" x2="186.38725" y2="45.15359" stroke="black" stroke-linecap="butt" stroke-linejoin="round" stroke-width="4"/><line x1="2.25" y1="8.5" x2="11.25" y2="8.5" stroke="black" stroke-linecap="butt" stroke-linejoin="round" stroke-width="5"/><line x1="11.25" y1="26.5" x2="65.25" y2="26.5" stroke="black" stroke-linecap="butt" stroke-linejoin="round" stroke-width="5"/><line x1="11.25" y1="35.5" x2="56.25" y2="35.5" stroke="black" stroke-linecap="butt" stroke-linejoin="round" stroke-width="5"/><line x1="11.25" y1="44.5" x2="74.25" y2="44.5" stroke="black" stroke-linecap="butt" stroke-linejoin="round" stroke-width="5"/><line x1="2.25" y1="53.5" x2="38.25" y2="53.5" stroke="black" stroke-linecap="butt" stroke-linejoin="round" stroke-width="5"/><line x1="11.25" y1="62.5" x2="47.25" y2="62.5" stroke="black" stroke-linecap="butt" stroke-linejoin="round" stroke-width="5"/><line x1="20.25" y1="71.5" x2="83.25" y2="71.5" stroke="black" stroke-linecap="butt" stroke-linejoin="round" stroke-width="5"/><line x1="11.25" y1="80.5" x2="47.25" y2="80.5" stroke="black" stroke-linecap="butt" stroke-linejoin="round" stroke-width="5"/><line x1="20.25" y1="89.5" x2="83.25" y2="89.5" stroke="black" stroke-linecap="butt" stroke-linejoin="round" stroke-width="5"/><line x1="11.25" y1="98.5" x2="20.25" y2="98.5" stroke="black" stroke-linecap="butt" stroke-linejoin="round" stroke-width="5"/><line x1="2.25" y1="107.5" x2="11.25" y2="107.5" stroke="black" stroke-linecap="butt" stroke-linejoin="round" stroke-width="5"/><line x1="11.25" y1="17.5" x2="56.25" y2="17.5" stroke="black" stroke-linecap="butt" stroke-linejoin="round" stroke-width="5"/><path d="M 110.25 67 L 110.25 40 L 139.25 40 L 139.25 26.5 L 155.25 53.5 L 139.25 80.5 L 139.25 67 Z" fill="white"/><path d="M 110.25 67 L 110.25 40 L 139.25 40 L 139.25 26.5 L 155.25 53.5 L 139.25 80.5 L 139.25 67 Z" stroke="black" stroke-linecap="round" stroke-linejoin="round" stroke-width="3"/></g></g></svg>
